<svg width="38" height="38" viewBox="0 0 38 38" fill="none" xmlns="http://www.w3.org/2000/svg">
<g filter="url(#filter0_d_42_30)">
<circle cx="19" cy="15" r="15" fill="white"/>
<circle cx="19" cy="15" r="14" stroke="#DC3C46" stroke-width="2"/>
</g>
<path d="M24.462 14.2449H14.1902V9.95423H24.462M23.178 19.3936C22.8375 19.3936 22.5109 19.258 22.2701 19.0166C22.0293 18.7752 21.894 18.4478 21.894 18.1064C21.894 17.765 22.0293 17.4376 22.2701 17.1962C22.5109 16.9548 22.8375 16.8192 23.178 16.8192C23.5185 16.8192 23.8451 16.9548 24.0859 17.1962C24.3267 17.4376 24.462 17.765 24.462 18.1064C24.462 18.4478 24.3267 18.7752 24.0859 19.0166C23.8451 19.258 23.5185 19.3936 23.178 19.3936ZM15.4742 19.3936C15.1337 19.3936 14.8071 19.258 14.5663 19.0166C14.3255 18.7752 14.1902 18.4478 14.1902 18.1064C14.1902 17.765 14.3255 17.4376 14.5663 17.1962C14.8071 16.9548 15.1337 16.8192 15.4742 16.8192C15.8147 16.8192 16.1413 16.9548 16.3821 17.1962C16.6229 17.4376 16.7582 17.765 16.7582 18.1064C16.7582 18.4478 16.6229 18.7752 16.3821 19.0166C16.1413 19.258 15.8147 19.3936 15.4742 19.3936ZM12.4783 18.5355C12.4783 19.2906 12.8121 19.9685 13.3342 20.4405V21.968C13.3342 22.1956 13.4244 22.4138 13.585 22.5748C13.7455 22.7357 13.9632 22.8261 14.1902 22.8261H15.0462C15.2732 22.8261 15.4909 22.7357 15.6515 22.5748C15.812 22.4138 15.9022 22.1956 15.9022 21.968V21.1098H22.75V21.968C22.75 22.1956 22.8402 22.4138 23.0007 22.5748C23.1612 22.7357 23.379 22.8261 23.606 22.8261H24.462C24.689 22.8261 24.9067 22.7357 25.0672 22.5748C25.2278 22.4138 25.3179 22.1956 25.3179 21.968V20.4405C25.8401 19.9685 26.1739 19.2906 26.1739 18.5355V9.95423C26.1739 6.9508 23.1095 6.52174 19.3261 6.52174C15.5427 6.52174 12.4783 6.9508 12.4783 9.95423V18.5355Z" fill="#DC3C46"/>
<defs>
<filter id="filter0_d_42_30" x="0" y="0" width="38" height="38" filterUnits="userSpaceOnUse" color-interpolation-filters="sRGB">
<feFlood flood-opacity="0" result="BackgroundImageFix"/>
<feColorMatrix in="SourceAlpha" type="matrix" values="0 0 0 0 0 0 0 0 0 0 0 0 0 0 0 0 0 0 127 0" result="hardAlpha"/>
<feOffset dy="4"/>
<feGaussianBlur stdDeviation="2"/>
<feComposite in2="hardAlpha" operator="out"/>
<feColorMatrix type="matrix" values="0 0 0 0 0 0 0 0 0 0 0 0 0 0 0 0 0 0 0.25 0"/>
<feBlend mode="normal" in2="BackgroundImageFix" result="effect1_dropShadow_42_30"/>
<feBlend mode="normal" in="SourceGraphic" in2="effect1_dropShadow_42_30" result="shape"/>
</filter>
</defs>
</svg>
